<?xml version="1.0"?>
<svg xmlns="http://www.w3.org/2000/svg" xmlnsXlink="http://www.w3.org/1999/xlink" xmlnsSvgjs="http://svgjs.com/svgjs" version="1.1" width="512" height="512" x="0" y="0" viewBox="0 0 32 32" style="enable-background:new 0 0 512 512" xmlSpace="preserve" class=""><g><path xmlns="http://www.w3.org/2000/svg" d="m26 32h-20c-3.314 0-6-2.686-6-6v-20c0-3.314 2.686-6 6-6h20c3.314 0 6 2.686 6 6v20c0 3.314-2.686 6-6 6z" fill="#e6e4e3" data-original="#ffe6e2" style="" class=""/><path xmlns="http://www.w3.org/2000/svg" d="m8.666 23.995c-.171 0-.341-.065-.472-.196-.26-.26-.26-.683.001-.943l5.38-5.374c.26-.26.682-.26.943.001.26.26.26.683-.001.943l-5.38 5.374c-.13.13-.3.195-.471.195z" fill="#9b9897" data-original="#fd907e" style="" class=""/><path xmlns="http://www.w3.org/2000/svg" d="m23.658 13.05-4.714-4.714c-.44-.441-1.21-.441-1.65 0l-.651.651c-.46.461-.618 1.13-.413 1.746.085.255.02.532-.171.723l-1.911 1.911c-.158.157-.367.244-.589.244h-.781c-.49 0-.951.191-1.296.537l-.316.316c-.221.22-.342.513-.342.825s.121.605.342.825l4.714 4.714c.22.22.513.342.825.342s.605-.121.825-.342l.316-.317c.346-.346.537-.807.537-1.296v-.781c0-.219.089-.434.244-.589l1.911-1.911c.19-.19.466-.257.723-.171.617.205 1.286.047 1.745-.413l.651-.651c.456-.454.456-1.194.001-1.649z" fill="#817776" data-original="#fc573b" style="" class=""/></g></svg>
